<svg width="24" height="24" viewBox="0 0 24 24" fill="none" xmlns="http://www.w3.org/2000/svg">
<path d="M12.5405 6.29289C12.1499 5.90237 11.5168 5.90237 11.1262 6.29289C10.7357 6.68342 10.7357 7.31658 11.1262 7.70711L15.2525 11.8333H6C5.44772 11.8333 5 12.2811 5 12.8333C5 13.3856 5.44772 13.8333 6 13.8333H15.2525L11.1262 17.9596C10.7357 18.3501 10.7357 18.9832 11.1262 19.3738C11.5168 19.7643 12.1499 19.7643 12.5405 19.3738L18.3738 13.5404C18.4719 13.4423 18.5454 13.3288 18.5943 13.2077C18.6362 13.1038 18.6612 12.9914 18.6659 12.8737C18.6714 12.7354 18.6484 12.5962 18.5969 12.4657C18.5481 12.3421 18.4738 12.2262 18.3738 12.1262L12.5405 6.29289Z" fill="#171717"/>
</svg>
