<svg width="24" height="24" viewBox="0 0 24 24" fill="none" xmlns="http://www.w3.org/2000/svg">
<path d="M12.5404 7.70711C12.931 7.31658 12.931 6.68342 12.5404 6.29289C12.1499 5.90237 11.5168 5.90237 11.1262 6.29289L5.29289 12.1262C5.09839 12.3207 5.00076 12.5754 5 12.8303L5 12.8333C5 12.9706 5.02766 13.1014 5.07771 13.2205C5.12258 13.3275 5.18687 13.4283 5.27058 13.5174C5.27875 13.5261 5.28706 13.5347 5.29553 13.5431L11.1262 19.3738C11.5168 19.7643 12.1499 19.7643 12.5404 19.3738C12.931 18.9832 12.931 18.3501 12.5404 17.9596L8.41422 13.8333H17.6667C18.219 13.8333 18.6667 13.3856 18.6667 12.8333C18.6667 12.2811 18.219 11.8333 17.6667 11.8333H8.4142L12.5404 7.70711Z" fill="#171717"/>
</svg>
