<svg width="18" height="18" viewBox="0 0 18 18" fill="none" xmlns="http://www.w3.org/2000/svg">
<path fill-rule="evenodd" clip-rule="evenodd" d="M11.875 3C11.875 2.58579 11.5392 2.25 11.125 2.25C10.7108 2.25 10.375 2.58579 10.375 3V3.50002H6.87499V3C6.87499 2.58579 6.53921 2.25 6.12499 2.25C5.71078 2.25 5.37499 2.58579 5.37499 3V3.50002H4.25C3.14543 3.50002 2.25 4.39545 2.25 5.50002V14.25C2.25 15.3546 3.14543 16.25 4.25 16.25H13C14.1046 16.25 15 15.3546 15 14.25V5.50002C15 4.39545 14.1046 3.50002 13 3.50002H11.875V3ZM13.5 7.25002V5.50002C13.5 5.22387 13.2761 5.00002 13 5.00002H11.875V5.5C11.875 5.91421 11.5392 6.25 11.125 6.25C10.7108 6.25 10.375 5.91421 10.375 5.5V5.00002H6.87499V5.5C6.87499 5.91421 6.53921 6.25 6.12499 6.25C5.71078 6.25 5.37499 5.91421 5.37499 5.5V5.00002H4.25C3.97386 5.00002 3.75 5.22387 3.75 5.50002V7.25002H13.5ZM3.75 8.75002H13.5V14.25C13.5 14.5262 13.2761 14.75 13 14.75H4.25C3.97386 14.75 3.75 14.5262 3.75 14.25V8.75002Z" fill="#171717"/>
</svg>
