<svg width="24" height="24" viewBox="0 0 24 24" fill="none" xmlns="http://www.w3.org/2000/svg">
<path d="M10.7172 5.18031C12.2597 4.8318 13.8735 4.99125 15.318 5.63487C15.8225 5.85965 16.4137 5.63291 16.6384 5.12844C16.8632 4.62397 16.6365 4.03279 16.132 3.80801C14.2936 2.98886 12.2396 2.78592 10.2764 3.22948C8.31327 3.67303 6.54606 4.73931 5.23839 6.26928C3.93073 7.79925 3.15266 9.71094 3.02023 11.7192C2.88781 13.7275 3.40812 15.7248 4.50356 17.4133C5.59901 19.1017 7.2109 20.3908 9.09884 21.0883C10.9868 21.7858 13.0496 21.8543 14.9797 21.2836C16.9097 20.713 18.6036 19.5337 19.8087 17.9217C21.0138 16.3097 21.6655 14.3513 21.6667 12.3387V11.5714C21.6667 11.0192 21.219 10.5714 20.6667 10.5714C20.1144 10.5714 19.6667 11.0192 19.6667 11.5714V12.3375C19.6658 13.9189 19.1537 15.4576 18.2068 16.7242C17.26 17.9908 15.9291 18.9174 14.4126 19.3657C12.8961 19.8141 11.2753 19.7603 9.79195 19.2122C8.30857 18.6642 7.04208 17.6513 6.18137 16.3247C5.32066 14.9981 4.91185 13.4288 5.0159 11.8508C5.11995 10.2729 5.73129 8.77084 6.75874 7.56872C7.78619 6.3666 9.17471 5.52881 10.7172 5.18031Z" fill="#15803D"/>
<path d="M21.3741 6.3782C21.7645 5.98748 21.7641 5.35432 21.3734 4.96399C20.9827 4.57366 20.3495 4.57398 19.9592 4.9647L12.333 12.5985L10.5404 10.806C10.1499 10.4155 9.51676 10.4155 9.12623 10.806C8.73571 11.1965 8.73571 11.8297 9.12623 12.2202L11.6262 14.7202C11.8138 14.9078 12.0683 15.0132 12.3336 15.0131C12.5989 15.0131 12.8533 14.9076 13.0408 14.7199L21.3741 6.3782Z" fill="#15803D"/>
</svg>
