<svg width="24" height="24" viewBox="0 0 24 24" fill="none" xmlns="http://www.w3.org/2000/svg">
<path d="M3.84766 3.84777C3.84766 3.33751 4.05036 2.84815 4.41117 2.48734C4.77198 2.12653 5.26134 1.92383 5.7716 1.92383H13.4674C13.7225 1.92388 13.9671 2.02527 14.1475 2.20569L18.9573 7.01555C19.1378 7.19591 19.2392 7.44055 19.2392 7.69566V19.2393C19.2392 19.7496 19.0365 20.2389 18.6757 20.5998C18.3149 20.9606 17.8255 21.1633 17.3153 21.1633H5.7716C5.26134 21.1633 4.77198 20.9606 4.41117 20.5998C4.05036 20.2389 3.84766 19.7496 3.84766 19.2393V3.84777ZM16.917 7.69566L13.4674 4.24603V7.69566H16.917ZM11.5434 3.84777H5.7716V19.2393H17.3153V9.6196H12.5054C12.2503 9.6196 12.0056 9.51825 11.8252 9.33785C11.6448 9.15744 11.5434 8.91276 11.5434 8.65763V3.84777ZM7.69554 12.5055C7.69554 12.2504 7.79689 12.0057 7.9773 11.8253C8.1577 11.6449 8.40238 11.5435 8.65752 11.5435H14.4293C14.6845 11.5435 14.9292 11.6449 15.1096 11.8253C15.29 12.0057 15.3913 12.2504 15.3913 12.5055C15.3913 12.7606 15.29 13.0053 15.1096 13.1857C14.9292 13.3661 14.6845 13.4675 14.4293 13.4675H8.65752C8.40238 13.4675 8.1577 13.3661 7.9773 13.1857C7.79689 13.0053 7.69554 12.7606 7.69554 12.5055ZM7.69554 16.3534C7.69554 16.0983 7.79689 15.8536 7.9773 15.6732C8.1577 15.4928 8.40238 15.3914 8.65752 15.3914H14.4293C14.6845 15.3914 14.9292 15.4928 15.1096 15.6732C15.29 15.8536 15.3913 16.0983 15.3913 16.3534C15.3913 16.6085 15.29 16.8532 15.1096 17.0336C14.9292 17.214 14.6845 17.3154 14.4293 17.3154H8.65752C8.40238 17.3154 8.1577 17.214 7.9773 17.0336C7.79689 16.8532 7.69554 16.6085 7.69554 16.3534Z" fill="#95989E"/>
</svg>
