<svg width="24" height="24" viewBox="0 0 24 24" fill="none" xmlns="http://www.w3.org/2000/svg">
<path fill-rule="evenodd" clip-rule="evenodd" d="M19 3C18.2659 3 17.5619 3.2916 17.0429 3.81066L9.12623 11.7273C8.99807 11.8555 8.90715 12.0161 8.86319 12.1919L8.02986 15.5252C7.94466 15.866 8.04451 16.2265 8.29289 16.4749C8.54127 16.7233 8.90176 16.8231 9.24254 16.7379L12.5759 15.9046C12.7517 15.8606 12.9123 15.7697 13.0404 15.6415L20.9571 7.72487C21.4762 7.20582 21.7678 6.50182 21.7678 5.76777C21.7678 5.03371 21.4762 4.32972 20.9571 3.81066C20.438 3.2916 19.7341 3 19 3ZM18.4571 5.22487C18.6011 5.08089 18.7964 5 19 5C19.2036 5 19.3989 5.08089 19.5429 5.22487C19.6869 5.36886 19.7678 5.56414 19.7678 5.76777C19.7678 5.97139 19.6869 6.16668 19.5429 6.31066L11.8221 14.0315L10.3744 14.3934L10.7363 12.9457L18.4571 5.22487Z" fill="#95989E"/>
<path d="M5.66667 4.76776C4.95942 4.76776 4.28115 5.04871 3.78105 5.54881C3.28095 6.04891 3 6.72718 3 7.43443V19.1011C3 19.8083 3.28095 20.4866 3.78105 20.9867C4.28115 21.4868 4.95942 21.7678 5.66667 21.7678H17.3333C18.0406 21.7678 18.7189 21.4868 19.219 20.9867C19.719 20.4866 20 19.8083 20 19.1011V13.2678C20 12.7155 19.5523 12.2678 19 12.2678C18.4477 12.2678 18 12.7155 18 13.2678V19.1011C18 19.2779 17.9298 19.4475 17.8047 19.5725C17.6797 19.6975 17.5101 19.7678 17.3333 19.7678H5.66667C5.48986 19.7678 5.32029 19.6975 5.19526 19.5725C5.07024 19.4475 5 19.2779 5 19.1011V7.43443C5 7.25762 5.07024 7.08805 5.19526 6.96302C5.32029 6.838 5.48986 6.76776 5.66667 6.76776H11.5C12.0523 6.76776 12.5 6.32005 12.5 5.76776C12.5 5.21548 12.0523 4.76776 11.5 4.76776H5.66667Z" fill="#95989E"/>
</svg>
