<svg width="20" height="20" viewBox="0 0 20 20" fill="none" xmlns="http://www.w3.org/2000/svg">
<path d="M19 9.99949H6.97892M6.97892 9.99949C6.97892 10.5916 6.75448 11.1595 6.3567 11.5783C5.95892 11.997 5.41941 12.2322 4.85687 12.2322C4.29432 12.2322 3.75481 11.997 3.35703 11.5783C2.95925 11.1595 2.73578 10.5916 2.73578 9.99949M6.97892 9.99949C6.97892 9.40733 6.75448 8.83943 6.3567 8.42072C5.95892 8.002 5.41941 7.76677 4.85687 7.76677C4.29432 7.76677 3.75481 8.002 3.35703 8.42072C2.95925 8.83943 2.73578 9.40733 2.73578 9.99949M2.73578 9.99949H1M19 16.7663H13.4074M13.4074 16.7663C13.4074 17.3585 13.1833 17.9271 12.7855 18.3459C12.3876 18.7647 11.848 19 11.2853 19C10.7228 19 10.1832 18.7637 9.78547 18.345C9.38769 17.9263 9.16422 17.3584 9.16422 16.7663M13.4074 16.7663C13.4074 16.174 13.1833 15.6064 12.7855 15.1876C12.3876 14.7688 11.848 14.5335 11.2853 14.5335C10.7228 14.5335 10.1832 14.7688 9.78547 15.1875C9.38769 15.6062 9.16422 16.1741 9.16422 16.7663M9.16422 16.7663H1M19 3.23272H15.9789M15.9789 3.23272C15.9789 3.52592 15.9231 3.81625 15.8165 4.08714C15.7099 4.35803 15.5537 4.60416 15.3567 4.81149C15.1597 5.01881 14.9259 5.18327 14.6686 5.29548C14.4112 5.40768 14.1354 5.46543 13.8569 5.46543C13.2943 5.46543 12.7548 5.2302 12.357 4.81149C11.9593 4.39277 11.7358 3.82487 11.7358 3.23272M15.9789 3.23272C15.9789 2.93951 15.9231 2.64918 15.8165 2.37829C15.7099 2.10741 15.5537 1.86127 15.3567 1.65395C15.1597 1.44662 14.9259 1.28216 14.6686 1.16996C14.4112 1.05775 14.1354 1 13.8569 1C13.2943 1 12.7548 1.23523 12.357 1.65395C11.9593 2.07266 11.7358 2.64056 11.7358 3.23272M11.7358 3.23272H1" stroke="#95989E" stroke-width="2" stroke-miterlimit="10" stroke-linecap="round"/>
</svg>
