<svg width="34" height="34" viewBox="0 0 34 34" fill="none" xmlns="http://www.w3.org/2000/svg">
<path d="M9.66909 30.8125H24.3303C25.6451 30.8125 26.691 29.7307 26.5496 28.4843C25.6365 20.4531 20.1872 20.5859 20.1872 17C20.1872 13.4141 25.7062 13.6133 26.5489 5.5157C26.6817 4.26859 25.6451 3.1875 24.3303 3.1875H9.66909C8.35424 3.1875 7.3203 4.26859 7.45045 5.5157C8.29315 13.6133 13.8122 13.3477 13.8122 17C13.8122 20.6523 8.36287 20.4531 7.45045 28.4843C7.30834 29.7307 8.35424 30.8125 9.66909 30.8125Z" stroke="#47B8E0" stroke-width="2" stroke-linecap="round" stroke-linejoin="round"/>
<path d="M22.7982 28.6875H11.2322C10.1963 28.6875 9.90407 27.4922 10.6306 26.7511C12.389 24.9687 15.9384 23.6924 15.9384 21.6484V14.875C15.9384 13.5568 13.415 12.5508 11.8538 10.4125C11.5961 10.0599 11.622 9.5625 12.2768 9.5625H21.7549C22.3134 9.5625 22.4343 10.0559 22.1799 10.4092C20.6413 12.5508 18.0634 13.5502 18.0634 14.875V21.6484C18.0634 23.6758 21.7629 24.7695 23.4025 26.7531C24.0632 27.5526 23.8321 28.6875 22.7982 28.6875Z" fill="#47B8E0"/>
</svg>
