<svg width="112" height="112" viewBox="0 0 112 112" fill="none" xmlns="http://www.w3.org/2000/svg">
<path d="M26.4443 14.5H80.8887C87.4854 14.5 92.8329 19.8477 92.833 26.4443V80.8887C92.833 87.4854 87.4854 92.833 80.8887 92.833H26.4443C19.8477 92.8329 14.5 87.4854 14.5 80.8887V26.4443C14.5001 19.8477 19.8477 14.5001 26.4443 14.5ZM26.4443 22.833C24.4501 22.8331 22.8331 24.4501 22.833 26.4443V80.8887C22.833 82.2377 23.5732 83.4137 24.667 84.0332C24.8625 84.1439 25.1077 84.11 25.2666 83.9512L66.2764 42.9424C67.0577 42.1612 68.1178 41.7227 69.2227 41.7227C70.3274 41.7228 71.3867 42.1613 72.168 42.9424H72.1689L83.6465 54.4209C83.7895 54.5638 84.0047 54.6066 84.1914 54.5293C84.3781 54.4519 84.4999 54.2695 84.5 54.0674V26.4443C84.4999 24.45 82.883 22.833 80.8887 22.833H26.4443ZM40.0557 30.0557C45.5785 30.0557 50.0557 34.5328 50.0557 40.0557C50.0556 45.5784 45.5784 50.0556 40.0557 50.0557C34.5329 50.0557 30.0557 45.5785 30.0557 40.0557C30.0557 34.5328 34.5328 30.0557 40.0557 30.0557ZM40.0557 38.3887C39.1352 38.3887 38.3887 39.1352 38.3887 40.0557C38.3887 40.9761 39.1352 41.7227 40.0557 41.7227C40.9761 41.7226 41.7226 40.9761 41.7227 40.0557C41.7227 39.1352 40.9761 38.3887 40.0557 38.3887ZM84.5 67.2666C84.5 67.134 84.4472 67.0068 84.3535 66.9131L69.5762 52.1348C69.3809 51.9395 69.0634 51.9395 68.8682 52.1348L37.3574 83.6465C37.2144 83.7895 37.1716 84.0046 37.249 84.1914C37.3264 84.3782 37.5088 84.5 37.7109 84.5H80.8887C82.883 84.5 84.5 82.883 84.5 80.8887V67.2666Z" fill="#AAACB1" stroke="white" stroke-linecap="round" stroke-linejoin="round"/>
<rect x="67" y="63" width="40" height="40" rx="18.5" fill="white"/>
<path d="M87.9512 68.25C89.493 68.25 90.7432 69.5002 90.7432 71.042V80.1602H99.8613C101.403 80.1603 102.652 81.4095 102.652 82.9512C102.652 84.4929 101.403 85.743 99.8613 85.7432H90.7432V94.8613C90.743 96.403 89.4929 97.6523 87.9512 97.6523C86.4095 97.6522 85.1603 96.403 85.1602 94.8613V85.7432H76.042C74.5002 85.7432 73.25 84.493 73.25 82.9512C73.2501 81.4095 74.5003 80.1602 76.042 80.1602H85.1602V71.042C85.1602 69.5003 86.4095 68.2501 87.9512 68.25Z" fill="#AAACB1" stroke="#AAACB1" stroke-width="1.5" stroke-linecap="round" stroke-linejoin="round"/>
</svg>
