<svg width="18" height="18" viewBox="0 0 18 18" fill="none" xmlns="http://www.w3.org/2000/svg">
<path fill-rule="evenodd" clip-rule="evenodd" d="M8.625 5.25C7.17525 5.25 6 6.42525 6 7.875C6 9.32475 7.17525 10.5 8.625 10.5C10.0747 10.5 11.25 9.32475 11.25 7.875C11.25 6.42525 10.0747 5.25 8.625 5.25ZM7.5 7.875C7.5 7.25368 8.00368 6.75 8.625 6.75C9.24632 6.75 9.75 7.25368 9.75 7.875C9.75 8.49632 9.24632 9 8.625 9C8.00368 9 7.5 8.49632 7.5 7.875Z" fill="#171717"/>
<path fill-rule="evenodd" clip-rule="evenodd" d="M8.20858 16.6238C8.20858 16.6238 8.20897 16.624 8.625 16L8.20858 16.6238C8.46051 16.7917 8.7891 16.792 9.04103 16.624L8.625 16C9.04103 16.624 9.04103 16.624 9.04103 16.624L9.04337 16.6225L9.04776 16.6195L9.06253 16.6095C9.07501 16.6011 9.09268 16.589 9.1152 16.5734C9.16023 16.5422 9.22469 16.4969 9.30582 16.4383C9.46799 16.3212 9.69718 16.1505 9.9711 15.9324C10.5178 15.4971 11.2486 14.8681 11.982 14.0939C13.4181 12.5781 15 10.364 15 7.875C15 6.18425 14.3283 4.56274 13.1328 3.36719C11.9373 2.17165 10.3158 1.5 8.625 1.5C6.93425 1.5 5.31274 2.17165 4.11719 3.36719C2.92165 4.56274 2.25 6.18425 2.25 7.875C2.25 10.364 3.83195 12.5781 5.26804 14.0939C6.00142 14.8681 6.73225 15.4971 7.2789 15.9324C7.55282 16.1505 7.78201 16.3212 7.94418 16.4383C8.02531 16.4969 8.08977 16.5422 8.1348 16.5734C8.15732 16.589 8.17499 16.6011 8.18747 16.6095L8.20224 16.6195L8.20663 16.6225L8.20858 16.6238ZM5.17785 4.42785C6.09209 3.51361 7.33207 3 8.625 3C9.91793 3 11.1579 3.51361 12.0721 4.42785C12.9864 5.34209 13.5 6.58207 13.5 7.875C13.5 9.76105 12.2694 11.6094 10.893 13.0623C10.2202 13.7726 9.54475 14.3544 9.03671 14.759C8.88167 14.8825 8.74277 14.989 8.625 15.0771C8.50722 14.989 8.36833 14.8825 8.21329 14.759C7.70525 14.3544 7.02983 13.7726 6.35696 13.0623C4.98055 11.6094 3.75 9.76105 3.75 7.875C3.75 6.58207 4.26361 5.34209 5.17785 4.42785Z" fill="#171717"/>
</svg>
