<svg width="18" height="18" viewBox="0 0 18 18" fill="none" xmlns="http://www.w3.org/2000/svg">
<path d="M6.3 15.75C5.1625 15.75 4.203 15.3595 3.4215 14.5785C2.64 13.7975 2.2495 12.838 2.25 11.7C2.25 11.225 2.33125 10.7625 2.49375 10.3125C2.65625 9.8625 2.8875 9.45625 3.1875 9.09375L5.85 5.8875L4.03125 2.25H13.9688L12.15 5.8875L14.8125 9.09375C15.1125 9.45625 15.3437 9.8625 15.5062 10.3125C15.6687 10.7625 15.75 11.225 15.75 11.7C15.75 12.8375 15.3562 13.797 14.5687 14.5785C13.7812 15.36 12.825 15.7505 11.7 15.75H6.3ZM9 12C8.5875 12 8.2345 11.8533 7.941 11.5597C7.6475 11.2662 7.5005 10.913 7.5 10.5C7.4995 10.087 7.6465 9.734 7.941 9.441C8.2355 9.148 8.5885 9.001 9 9C9.4115 8.999 9.76475 9.146 10.0598 9.441C10.3548 9.736 10.5015 10.089 10.5 10.5C10.4985 10.911 10.3518 11.2642 10.0598 11.5597C9.76775 11.8553 9.4145 12.002 9 12ZM7.21875 5.25H10.7813L11.5313 3.75H6.46875L7.21875 5.25ZM6.3 14.25H11.7C12.4125 14.25 13.0158 14.0033 13.5098 13.5098C14.0038 13.0163 14.2505 12.413 14.25 11.7C14.25 11.4 14.1968 11.1095 14.0903 10.8285C13.9838 10.5475 13.837 10.2943 13.65 10.0688L10.8938 6.75H7.125L4.35 10.05C4.1625 10.275 4.01575 10.5312 3.90975 10.8188C3.80375 11.1062 3.7505 11.4 3.75 11.7C3.75 12.4125 3.997 13.0157 4.491 13.5098C4.985 14.0038 5.588 14.2505 6.3 14.25Z" fill="#111111"/>
</svg>
