<svg width="24" height="24" viewBox="0 0 24 24" fill="none" xmlns="http://www.w3.org/2000/svg">
<path d="M15.5404 9.12621C15.931 9.51673 15.931 10.1499 15.5404 10.5404L13.7475 12.3333L15.5404 14.1262C15.931 14.5167 15.931 15.1499 15.5404 15.5404C15.1499 15.9309 14.5167 15.9309 14.1262 15.5404L12.3333 13.7475L10.5404 15.5404C10.1499 15.9309 9.51675 15.9309 9.12622 15.5404C8.7357 15.1499 8.7357 14.5167 9.12622 14.1262L10.9191 12.3333L9.12622 10.5404C8.7357 10.1499 8.7357 9.51673 9.12622 9.12621C9.51675 8.73568 10.1499 8.73568 10.5404 9.12621L12.3333 10.9191L14.1262 9.12621C14.5167 8.73568 15.1499 8.73568 15.5404 9.12621Z" fill="#95989E"/>
<path fill-rule="evenodd" clip-rule="evenodd" d="M3 12.3333C3 7.17868 7.17868 3 12.3333 3C17.488 3 21.6667 7.17868 21.6667 12.3333C21.6667 17.488 17.488 21.6667 12.3333 21.6667C7.17868 21.6667 3 17.488 3 12.3333ZM12.3333 5C8.28325 5 5 8.28325 5 12.3333C5 16.3834 8.28325 19.6667 12.3333 19.6667C16.3834 19.6667 19.6667 16.3834 19.6667 12.3333C19.6667 8.28325 16.3834 5 12.3333 5Z" fill="#95989E"/>
</svg>
